<?xml version="1.0" encoding="utf-8"?>
<!-- Generator: Adobe Illustrator 26.4.1, SVG Export Plug-In . SVG Version: 6.00 Build 0)  -->
<svg version="1.1" id="Calque_1" xmlns="http://www.w3.org/2000/svg" xmlns:xlink="http://www.w3.org/1999/xlink" x="0px" y="0px"
	 viewBox="0 0 1366 768" style="enable-background:new 0 0 1366 768;" xml:space="preserve">
<style type="text/css">
	.st0{fill:#000FA0;}
</style>
<g>
	<g>
		<path class="st0" d="M208.28,62H329c0,0,115.09,0,115.09,320.15C444.09,695.69,329,705.62,329,705.62H208.94
			c0,0,116.8-9.93,116.8-321.88C325.74,62,208.28,62,208.28,62"/>
		<path class="st0" d="M9.34,62h120.72c0,0,115.09,0,115.09,320.15c0,313.53-115.09,323.46-115.09,323.46H10
			c0,0,116.8-9.93,116.8-321.88C126.8,62,9.34,62,9.34,62"/>
		<path class="st0" d="M1278.53,626.64h80.11v-18.97h-80.11v-57.9h80.11V530.8h-99.33v174.7h99.33v-18.97h-80.11V626.64z
			 M1197.6,578.72c0,16.72-11.23,29.2-30.95,29.2h-40.18v-58.15h40.18C1186.36,549.77,1197.6,562,1197.6,578.72 M1154.17,626.39
			l46.43,79.11h22.21l-46.67-79.61c29.95-3.99,40.93-25.96,40.93-47.17c0-23.21-13.22-47.92-50.41-47.92h-59.4v174.7h19.22v-79.11
			H1154.17z M1038.08,705.5h19.22V530.8h-19.22V705.5z M994.25,587.45c0-36.69-22.96-59.15-56.4-59.15
			c-33.44,0-56.41,22.46-56.41,59.15v61.4c0,36.69,22.96,59.15,56.41,59.15c33.44,0,56.4-22.46,56.4-59.15V587.45z M975.03,648.85
			c0,26.45-16.47,40.18-37.19,40.18c-20.72,0-37.19-13.73-37.19-40.18v-61.4c0-26.45,16.47-40.18,37.19-40.18
			c20.71,0,37.19,13.73,37.19,40.18V648.85z M762.8,705.5h99.33v-18.97h-80.12V530.8H762.8V705.5z"/>
		<path class="st0" d="M1037.86,488.93c34.94,0,52.91-18.72,52.91-46.67c0-27.7-15.97-42.93-40.68-49.92l-20.46-5.74
			c-17.97-4.99-25.96-14.97-25.96-30.95c0-15.23,11.23-27.46,32.2-27.46c18.72,0,29.2,10.98,32.94,27.7h19.72
			c-3.74-29.7-22.46-46.67-52.66-46.67c-27.95,0-51.66,16.47-51.66,46.42c0,21.21,10.73,42.43,36.69,49.66l22.21,6.24
			c19.72,5.49,28.2,14.97,28.2,30.7c0,18.46-13.73,27.7-33.44,27.7c-18.72,0-33.94-12.73-36.94-35.19h-19.72
			C983.71,468.22,1006.16,488.93,1037.86,488.93 M901.14,417.06l57.65-105.32h-20.97l-46.17,84.61l-46.42-84.61h-20.97l57.65,105.07
			v69.63h19.22V417.06z M782.45,419.55h-51.91l25.95-81.12L782.45,419.55z M804.16,486.44h19.47l-56.15-174.7h-21.96l-56.16,174.7
			h19.47l15.97-49.16h63.39L804.16,486.44z M654.99,365.14c0,18.97-9.73,34.44-36.69,34.44h-37.19V330.7h37.19
			C645.26,330.7,654.99,346.17,654.99,365.14 M674.71,365.14c0-30.95-15.97-53.41-56.4-53.41H561.9v174.7h19.22v-67.88h37.19
			C658.73,418.55,674.71,396.09,674.71,365.14"/>
		<path class="st0" d="M1359.63,98.92h-32.12v108.12l-62.34-108.12h-32.12v167.82h32.12V158.62l62.34,108.13h32.12V98.92z
			 M1169.94,207.05c0,19.42-13.67,30.21-31.17,30.21c-17.5,0-31.17-10.79-31.17-30.21v-48.43c0-19.42,13.67-30.21,31.17-30.21
			c17.5,0,31.17,10.78,31.17,30.21V207.05z M1202.07,207.05v-48.43c0-37.16-23.02-62.09-63.29-62.09
			c-40.28,0-63.29,24.94-63.29,62.09v48.43c0,37.16,23.02,62.09,63.29,62.09C1179.06,269.14,1202.07,244.21,1202.07,207.05
			 M1043.68,98.92h-32.13v167.82h32.13V98.92z M913.91,202.73h31.17v4.31c0,19.42-13.67,30.21-31.17,30.21
			c-17.5,0-31.17-10.79-31.17-30.21v-48.43c0-19.42,13.66-30.21,31.17-30.21c15.35,0,27.81,8.39,30.69,23.5h32.36
			c-2.63-33.32-25.17-55.38-63.05-55.38c-40.28,0-63.29,24.94-63.29,62.09v48.43c0,37.16,23.02,62.09,63.29,62.09
			c40.28,0,63.29-24.93,63.29-62.09v-36.2h-63.29V202.73z M767.75,62l-17.98,26.14h29.01L809.47,62H767.75z M750.73,130.81h70.01
			V98.92H718.6v167.82h102.13v-31.89h-70.01v-36.92h70.01v-31.88h-70.01V130.81z M653.46,148.79c0,11.51-7.91,17.74-20.14,17.74
			h-39.32v-35.72h39.32C645.55,130.81,653.46,137.04,653.46,148.79 M613.67,197.7l40.51,69.05h36.92l-41.71-70.73
			c23.5-5.51,36.2-22.77,36.2-47.71c0-30.21-18.94-49.38-52.98-49.38h-70.73v167.82h32.13V197.7H613.67z"/>
	</g>
	<path class="st0" d="M666.6,691.08l5.41,14.53h15.16l-27.06-72.14h-13.85l-27.06,72.14h15.15l5.41-14.53H666.6z M661.63,678.01
		h-16.89l8.45-23.4L661.63,678.01z M576.37,633.47h-14.49v72.14h46.09v-13.7h-31.6V633.47z"/>
	<g>
		<path class="st0" d="M651.58,544.64h31.61v-13.7h-46.1v72.14h46.1v-13.7h-31.61V573.5h31.61v-13.7h-31.61V544.64z M604.53,576.39
			c0,8.36-6.17,13-14.08,13h-14.08v-44.75h14.08c7.9,0,14.08,4.64,14.08,12.99V576.39z M590.45,603.09
			c18.18,0,28.57-10.71,28.57-26.69v-18.76c0-15.98-10.39-26.69-28.57-26.69h-28.57v72.14H590.45z"/>
	</g>
</g>
</svg>
