<svg xmlns="http://www.w3.org/2000/svg" width="230" height="75" viewBox="0 0 230 75">
  <g fill="#2D0F64">
    <path d="M20.2464789 59.1197183C14.5774648 59.1197183 13.6056338 56.2042254 13.6056338 52.4788732L13.6056338 52.4788732.323943662 52.4788732.323943662 55.0704225C.323943662 64.1408451 7.93661972 72.4014085 17.6549296 72.4014085L26.7253521 72.4014085 26.7253521 59.1197183 20.2464789 59.1197183 20.2464789 59.1197183zM48.1056338.809859155L34.6619718.809859155 34.6619718 72.4014085 48.1056338 72.4014085 48.1056338.809859155zM59.1197183 58.7957746C59.1197183 66.5704225 65.5985915 73.6971831 76.1267606 73.6971831 83.5774648 73.6971831 88.2746479 70.2957746 90.7042254 66.2464789 90.7042254 68.1901408 90.8661972 70.943662 91.1901408 72.2394366L103.5 72.2394366C103.176056 70.4577465 102.852113 67.056338 102.852113 64.3028169L102.852113 40.0070423C102.852113 29.9647887 97.0211268 21.056338 81.3098592 21.056338 68.028169 21.056338 60.7394366 29.6408451 59.9295775 37.415493L71.7535211 40.0070423C72.0774648 35.6338028 75.3169014 31.9084507 81.3098592 31.9084507 86.9788732 31.9084507 89.7323944 34.8239437 89.7323944 38.3873239 89.7323944 40.1690141 88.7605634 41.4647887 86.0070423 41.9507042L73.8591549 43.7323944C65.5985915 45.028169 59.1197183 49.8873239 59.1197183 58.7957746M79.0422535 63.6549296C74.6690141 63.6549296 72.5633803 60.7394366 72.5633803 57.9859155 72.5633803 54.0985915 75.3169014 52.3169014 78.7183099 51.6690141L89.8943662 49.8873239 89.8943662 52.1549296C89.8943662 61.0633803 84.5492958 63.6549296 79.0422535 63.6549296M112.246479 58.471831C112.894366 64.1408451 118.077465 73.8591549 132.978873 73.8591549 145.93662 73.8591549 152.253521 65.5985915 152.253521 57.5 152.253521 50.2112676 147.232394 44.2183099 137.514085 42.2746479L130.387324 40.8169014C127.633803 40.3309859 125.852113 38.8732394 125.852113 36.443662 125.852113 33.6901408 128.605634 31.584507 132.169014 31.584507 137.838028 31.584507 139.943662 35.3098592 140.429577 38.2253521L151.605634 35.6338028C150.957746 30.2887324 146.260563 21.2183099 132.169014 21.2183099 121.478873 21.2183099 113.542254 28.5070423 113.542254 37.415493 113.542254 44.3802817 117.915493 50.0492958 127.471831 52.3169014L134.112676 53.7746479C138 54.584507 139.457746 56.3661972 139.457746 58.6338028 139.457746 61.2253521 137.352113 63.6549296 132.816901 63.6549296 126.985915 63.6549296 124.070423 60.0915493 123.746479 56.0422535L112.246479 58.471831z" transform="translate(77.746)"/>
    <path d="M35.9577465,16.1971831 L45.8380282,43.2464789 L26.0774648,43.2464789 L35.9577465,16.1971831 Z M28.1830986,0.809859155 L0.647887324,72.4014085 L15.3873239,72.4014085 L21.3802817,56.0422535 L50.3732394,56.0422535 L56.3661972,72.4014085 L71.4295775,72.4014085 L44.2183099,0.809859155 L28.1830986,0.809859155 Z"/>
    <polygon points="104.634 21.056 91.514 21.056 91.514 7.775 78.232 7.775 78.232 21.056 65.113 21.056 65.113 34.176 78.232 34.176 78.232 47.458 91.514 47.458 91.514 34.176 104.634 34.176"/>
  </g>
</svg>
